<svg xmlns:xlink="http://www.w3.org/1999/xlink" xmlns="http://www.w3.org/2000/svg" viewBox="0 0 24 24" width="24"  height="24" ><defs><g id="ui-icon-right" viewBox="0 0 24 24">
<path d="M20.25 12.1201C20.25 12.1201 20.25 12.1201 20.25 12.0601C20.2454 11.9544 20.2252 11.8499 20.19 11.7501L20.1 11.6001C20.1 11.6001 20.04 11.4901 20 11.4401L14 4.83009C13.818 4.65153 13.5746 4.54925 13.3197 4.54415C13.0648 4.53904 12.8175 4.63151 12.6285 4.80265C12.4395 4.97378 12.323 5.21065 12.3028 5.46483C12.2827 5.719 12.3603 5.97128 12.52 6.17009L17 11.1201H4.75C4.48478 11.1201 4.23043 11.2254 4.04289 11.413C3.85536 11.6005 3.75 11.8549 3.75 12.1201C3.75 12.3853 3.85536 12.6397 4.04289 12.8272C4.23043 13.0147 4.48478 13.1201 4.75 13.1201H16.94L12.52 17.8201C12.3402 18.014 12.2446 18.2712 12.2539 18.5354C12.2633 18.7996 12.377 19.0494 12.57 19.2301C12.7544 19.4028 12.9974 19.4992 13.25 19.5001C13.3871 19.4996 13.5227 19.471 13.6483 19.416C13.7738 19.3609 13.8868 19.2806 13.98 19.1801L19.98 12.8201C19.98 12.7701 20.04 12.7201 20.08 12.6701C20.1158 12.6202 20.146 12.5666 20.17 12.5101C20.2225 12.3868 20.2497 12.2541 20.25 12.1201Z"></path>
</g></defs><use xlink:href="#ui-icon-right" fill="rgb(105,105,105)"></use></svg>